<svg width="12" height="12" viewBox="0 0 12 12" fill="none" xmlns="http://www.w3.org/2000/svg">
<g clip-path="url(#clip0_9_65)">
<path fill-rule="evenodd" clip-rule="evenodd" d="M0.75 6.00001C0.75 5.90056 0.789509 5.80517 0.859835 5.73485C0.930161 5.66452 1.02554 5.62501 1.125 5.62501H9.96975L7.6095 3.26551C7.53909 3.1951 7.49953 3.0996 7.49953 3.00001C7.49953 2.90043 7.53909 2.80493 7.6095 2.73451C7.67992 2.6641 7.77542 2.62454 7.875 2.62454C7.97458 2.62454 8.07009 2.6641 8.1405 2.73451L11.1405 5.73451C11.1754 5.76935 11.2031 5.81073 11.222 5.85629C11.2409 5.90185 11.2507 5.95069 11.2507 6.00001C11.2507 6.04934 11.2409 6.09818 11.222 6.14374C11.2031 6.1893 11.1754 6.23068 11.1405 6.26551L8.1405 9.26551C8.07009 9.33593 7.97458 9.37549 7.875 9.37549C7.77542 9.37549 7.67992 9.33593 7.6095 9.26551C7.53909 9.1951 7.49953 9.0996 7.49953 9.00001C7.49953 8.90043 7.53909 8.80493 7.6095 8.73451L9.96975 6.37501H1.125C1.02554 6.37501 0.930161 6.3355 0.859835 6.26518C0.789509 6.19485 0.75 6.09947 0.75 6.00001Z" fill="#DDDDDD"/>
</g>
<defs>
<clipPath id="clip0_9_65">
<rect width="12" height="12" fill="white" transform="matrix(0 -1 1 0 0 12)"/>
</clipPath>
</defs>
</svg>
