<svg width="24" height="24" viewBox="0 0 24 24" fill="none" xmlns="http://www.w3.org/2000/svg">
<path d="M5 8C4.73478 8 4.48043 7.89464 4.29289 7.70711C4.10536 7.51957 4 7.26522 4 7V4C4 3.73478 4.10536 3.48043 4.29289 3.29289C4.48043 3.10536 4.73478 3 5 3H9C9.26522 3 9.51957 3.10536 9.70711 3.29289C9.89464 3.48043 10 3.73478 10 4V7C10 7.26522 9.89464 7.51957 9.70711 7.70711C9.51957 7.89464 9.26522 8 9 8H5ZM5 21C4.73478 21 4.48043 20.8946 4.29289 20.7071C4.10536 20.5196 4 20.2652 4 20V13C4 12.7348 4.10536 12.4804 4.29289 12.2929C4.48043 12.1054 4.73478 12 5 12H9C9.26522 12 9.51957 12.1054 9.70711 12.2929C9.89464 12.4804 10 12.7348 10 13V20C10 20.2652 9.89464 20.5196 9.70711 20.7071C9.51957 20.8946 9.26522 21 9 21H5ZM15 21C14.7348 21 14.4804 20.8946 14.2929 20.7071C14.1054 20.5196 14 20.2652 14 20V18C14 17.7348 14.1054 17.4804 14.2929 17.2929C14.4804 17.1054 14.7348 17 15 17H19C19.2652 17 19.5196 17.1054 19.7071 17.2929C19.8946 17.4804 20 17.7348 20 18V20C20 20.2652 19.8946 20.5196 19.7071 20.7071C19.5196 20.8946 19.2652 21 19 21H15ZM15 13C14.7348 13 14.4804 12.8946 14.2929 12.7071C14.1054 12.5196 14 12.2652 14 12V4C14 3.73478 14.1054 3.48043 14.2929 3.29289C14.4804 3.10536 14.7348 3 15 3H19C19.2652 3 19.5196 3.10536 19.7071 3.29289C19.8946 3.48043 20 3.73478 20 4V12C20 12.2652 19.8946 12.5196 19.7071 12.7071C19.5196 12.8946 19.2652 13 19 13H15Z" stroke="#121212" stroke-width="2"/>
</svg>
