<svg width="28" height="28" viewBox="0 0 28 28" fill="none" xmlns="http://www.w3.org/2000/svg">
<path d="M5.75052 22.2498C5.29679 21.7961 5.29762 21.061 5.75052 20.6081L20.608 5.75063C20.8257 5.53293 21.121 5.41063 21.4288 5.41063C21.7367 5.41063 22.032 5.53293 22.2497 5.75063C22.4674 5.96833 22.5897 6.26359 22.5897 6.57146C22.5897 6.87934 22.4674 7.1746 22.2497 7.3923L7.39219 22.2498C7.17449 22.4675 6.87923 22.5898 6.57135 22.5898C6.26348 22.5898 5.96822 22.4675 5.75052 22.2498Z" fill="#848484"/>
<path d="M7.81405 6.17245C7.5031 5.8615 7.1184 5.64976 6.74459 5.58382C6.37078 5.51788 6.03847 5.60313 5.82077 5.82083C5.60307 6.03853 5.51782 6.37084 5.58376 6.74465C5.6497 7.11846 5.86143 7.50316 6.17239 7.81412L20.3243 21.966C20.6352 22.277 21.0199 22.4887 21.3938 22.5546C21.7676 22.6206 22.0999 22.5353 22.3176 22.3176C22.5353 22.0999 22.6205 21.7676 22.5546 21.3938C22.4886 21.02 22.2769 20.6353 21.966 20.3243L7.81405 6.17245Z" fill="#848484"/>
</svg>
