<svg width="15" height="45" viewBox="0 0 15 45" fill="none" xmlns="http://www.w3.org/2000/svg">
<path d="M7 16V26" stroke="#121212" stroke-miterlimit="16" stroke-linecap="round" stroke-linejoin="round" stroke-dasharray="1 3"/>
<path d="M11.9115 36.3084V36.3101V36.3632C11.8785 38.0212 10.9465 39.6034 9.73112 40.8865C9.03878 41.6052 8.2657 42.2415 7.42728 42.7828C7.40769 42.7954 7.389 42.8094 7.37136 42.8247C7.32618 42.8638 7.25916 42.8638 7.21397 42.8247C7.19681 42.8098 7.17865 42.7962 7.15963 42.7838C5.90979 41.9703 4.81285 40.9432 3.91898 39.7495L3.919 39.7495L3.91581 39.7453C3.15268 38.7483 2.71868 37.5386 2.67383 36.2839V36.2762C2.68294 33.7256 4.75772 31.6652 7.30836 31.6739C9.85928 31.6825 11.9202 33.7575 11.9115 36.3084Z" stroke="black" stroke-linecap="round" stroke-linejoin="round"/>
<ellipse cx="7.29268" cy="36.374" rx="1.64058" ry="1.64058" stroke="black" stroke-linecap="round" stroke-linejoin="round"/>
<circle cx="7" cy="5" r="3.5" stroke="#121212" stroke-width="3"/>
</svg>
