<svg width="24" height="24" viewBox="0 0 24 24" fill="none" xmlns="http://www.w3.org/2000/svg">
<circle cx="12" cy="12" r="12" fill="#DDDDDD"/>
<path d="M14.3452 11.3662C15.4075 11.3662 16.2685 10.5052 16.2685 9.4429C16.2685 8.38124 15.4075 7.51965 14.3452 7.51965" stroke="#4B4B4B" stroke-width="1.5" stroke-linecap="round" stroke-linejoin="round"/>
<path d="M15.2295 13.4563C15.5468 13.4779 15.8618 13.5234 16.1727 13.5922C16.6038 13.678 17.123 13.8547 17.3073 14.2415C17.4252 14.4894 17.4252 14.7781 17.3073 15.026C17.1236 15.4128 16.6038 15.5895 16.1727 15.6782" stroke="#4B4B4B" stroke-width="1.5" stroke-linecap="round" stroke-linejoin="round"/>
<path fill-rule="evenodd" clip-rule="evenodd" d="M10.5951 13.8704C12.7476 13.8704 14.5862 14.1964 14.5862 15.499C14.5862 16.8022 12.7592 17.1394 10.5951 17.1394C8.44258 17.1394 6.60449 16.8139 6.60449 15.5107C6.60449 14.2075 8.43091 13.8704 10.5951 13.8704Z" stroke="#4B4B4B" stroke-width="1.5" stroke-linecap="round" stroke-linejoin="round"/>
<path fill-rule="evenodd" clip-rule="evenodd" d="M10.5949 12.011C9.1751 12.011 8.0376 10.8729 8.0376 9.45309C8.0376 8.03384 9.1751 6.89575 10.5949 6.89575C12.0148 6.89575 13.1528 8.03384 13.1528 9.45309C13.1528 10.8729 12.0148 12.011 10.5949 12.011Z" stroke="#4B4B4B" stroke-width="1.5" stroke-linecap="round" stroke-linejoin="round"/>
</svg>
