<svg width="28" height="28" viewBox="0 0 28 28" fill="none" xmlns="http://www.w3.org/2000/svg">
<path d="M2.33325 6.99409C2.33325 6.35242 2.85359 5.83325 3.49409 5.83325H12.8391C13.147 5.83325 13.4422 5.95555 13.6599 6.17325C13.8776 6.39095 13.9999 6.68621 13.9999 6.99409C13.9999 7.30196 13.8776 7.59722 13.6599 7.81492C13.4422 8.03262 13.147 8.15492 12.8391 8.15492H3.49409C3.18621 8.15492 2.89095 8.03262 2.67325 7.81492C2.45555 7.59722 2.33325 7.30196 2.33325 6.99409Z" fill="#DDDDDD"/>
<path d="M2.33325 13.9999C2.33325 13.3583 2.85359 12.8391 3.49409 12.8391H24.5058C24.8136 12.8391 25.1089 12.9614 25.3266 13.1791C25.5443 13.3968 25.6666 13.6921 25.6666 13.9999C25.6666 14.3078 25.5443 14.6031 25.3266 14.8208C25.1089 15.0385 24.8136 15.1608 24.5058 15.1608H3.49409C3.18621 15.1608 2.89095 15.0385 2.67325 14.8208C2.45555 14.6031 2.33325 14.3078 2.33325 13.9999Z" fill="#DDDDDD"/>
<path d="M3.49409 19.845C3.18621 19.845 2.89095 19.9673 2.67325 20.185C2.45555 20.4027 2.33325 20.6979 2.33325 21.0058C2.33325 21.3137 2.45555 21.6089 2.67325 21.8266C2.89095 22.0443 3.18621 22.1666 3.49409 22.1666H17.5058C17.8136 22.1666 18.1089 22.0443 18.3266 21.8266C18.5443 21.6089 18.6666 21.3137 18.6666 21.0058C18.6666 20.6979 18.5443 20.4027 18.3266 20.185C18.1089 19.9673 17.8136 19.845 17.5058 19.845H3.49409Z" fill="#DDDDDD"/>
</svg>
