<svg width="24" height="24" viewBox="0 0 24 24" fill="none" xmlns="http://www.w3.org/2000/svg">
<circle cx="12" cy="12" r="12" fill="#DDDDDD"/>
<path fill-rule="evenodd" clip-rule="evenodd" d="M7.04199 14.0424V13.9147C7.06073 13.5368 7.18185 13.1706 7.39288 12.8539C7.74413 12.4735 7.98458 12.0073 8.089 11.5043C8.089 11.1155 8.089 10.7212 8.12296 10.3324C8.29841 8.4607 10.1491 7.16663 11.9771 7.16663H12.0224C13.8504 7.16663 15.7011 8.4607 15.8822 10.3324C15.9162 10.7212 15.8822 11.1155 15.9105 11.5043C16.0163 12.0085 16.2566 12.4761 16.6066 12.8594C16.8192 13.1733 16.9406 13.5382 16.9575 13.9147V14.0369C16.9702 14.5447 16.7953 15.0398 16.4652 15.4309C16.0289 15.8883 15.4369 16.1729 14.8012 16.2307C12.9373 16.4307 11.0566 16.4307 9.19262 16.2307C8.55767 16.1704 7.96653 15.8862 7.52871 15.4309C7.20367 15.0395 7.03114 14.5473 7.04199 14.0424Z" stroke="#4B4B4B" stroke-width="1.5" stroke-linecap="round" stroke-linejoin="round"/>
<path d="M10.5737 18.1635C10.865 18.529 11.2927 18.7656 11.7622 18.8208C12.2316 18.8761 12.7042 18.7454 13.0753 18.4578C13.1894 18.3727 13.2921 18.2738 13.3809 18.1635" stroke="#4B4B4B" stroke-width="1.5" stroke-linecap="round" stroke-linejoin="round"/>
</svg>
