<svg width="24" height="24" viewBox="0 0 24 24" fill="none" xmlns="http://www.w3.org/2000/svg">
<circle cx="12" cy="12" r="12" fill="#DDDDDD"/>
<ellipse cx="11.754" cy="9.24556" rx="2.78718" ry="2.78719" stroke="#4B4B4B" stroke-width="1.5" stroke-linecap="round" stroke-linejoin="round"/>
<path fill-rule="evenodd" clip-rule="evenodd" d="M7.33302 15.9091C7.33227 15.7132 7.37609 15.5196 7.46116 15.3431C7.72814 14.8092 8.481 14.5262 9.10571 14.3981C9.55625 14.3019 10.013 14.2377 10.4726 14.2058C11.3235 14.1311 12.1793 14.1311 13.0302 14.2058C13.4897 14.238 13.9465 14.3023 14.3971 14.3981C15.0218 14.5262 15.7747 14.7825 16.0416 15.3431C16.2127 15.7029 16.2127 16.1206 16.0416 16.4804C15.7747 17.0411 15.0218 17.2974 14.3971 17.4202C13.9471 17.5203 13.4901 17.5863 13.0302 17.6177C12.3376 17.6764 11.6418 17.6872 10.9478 17.6498C10.7876 17.6498 10.6328 17.6498 10.4726 17.6177C10.0144 17.5867 9.55919 17.5207 9.11105 17.4202C8.481 17.2974 7.73347 17.0411 7.46116 16.4804C7.37652 16.3019 7.33275 16.1067 7.33302 15.9091Z" stroke="#4B4B4B" stroke-width="1.5" stroke-linecap="round" stroke-linejoin="round"/>
</svg>
