<svg width="19" height="19" viewBox="0 0 19 19" fill="none" xmlns="http://www.w3.org/2000/svg">
<path d="M12.6824 8.63981C14.124 8.63981 15.2925 7.47131 15.2925 6.02968C15.2925 4.58885 14.124 3.41956 12.6824 3.41956" stroke="#121212" stroke-width="2" stroke-linecap="round" stroke-linejoin="round"/>
<path d="M13.8826 11.4763C14.3132 11.5056 14.7407 11.5674 15.1627 11.6608C15.7477 11.7772 16.4523 12.017 16.7025 12.5419C16.8624 12.8784 16.8624 13.2702 16.7025 13.6067C16.4531 14.1316 15.7477 14.3714 15.1627 14.4918" stroke="#121212" stroke-width="2" stroke-linecap="round" stroke-linejoin="round"/>
<path fill-rule="evenodd" clip-rule="evenodd" d="M7.59304 12.0383C10.5143 12.0383 13.0096 12.4809 13.0096 14.2487C13.0096 16.0172 10.5301 16.4748 7.59304 16.4748C4.67179 16.4748 2.17725 16.0331 2.17725 14.2645C2.17725 12.4959 4.65595 12.0383 7.59304 12.0383Z" stroke="#121212" stroke-width="2" stroke-linecap="round" stroke-linejoin="round"/>
<path fill-rule="evenodd" clip-rule="evenodd" d="M7.59298 9.51488C5.66606 9.51488 4.12231 7.97034 4.12231 6.04342C4.12231 4.1173 5.66606 2.57275 7.59298 2.57275C9.5199 2.57275 11.0644 4.1173 11.0644 6.04342C11.0644 7.97034 9.5199 9.51488 7.59298 9.51488Z" stroke="#121212" stroke-width="2" stroke-linecap="round" stroke-linejoin="round"/>
</svg>
