<svg width="24" height="24" viewBox="0 0 24 24" fill="none" xmlns="http://www.w3.org/2000/svg">
<path d="M15.6824 11.6397C17.124 11.6397 18.2925 10.4712 18.2925 9.02956C18.2925 7.58873 17.124 6.41943 15.6824 6.41943" stroke="#4B4B4B" stroke-width="2" stroke-linecap="round" stroke-linejoin="round"/>
<path d="M16.8826 14.4763C17.3132 14.5056 17.7407 14.5674 18.1627 14.6608C18.7477 14.7772 19.4523 15.017 19.7025 15.5419C19.8624 15.8784 19.8624 16.2702 19.7025 16.6067C19.4531 17.1316 18.7477 17.3714 18.1627 17.4918" stroke="#4B4B4B" stroke-width="2" stroke-linecap="round" stroke-linejoin="round"/>
<path fill-rule="evenodd" clip-rule="evenodd" d="M10.593 15.0383C13.5143 15.0383 16.0096 15.4809 16.0096 17.2487C16.0096 19.0172 13.5301 19.4748 10.593 19.4748C7.67179 19.4748 5.17725 19.0331 5.17725 17.2645C5.17725 15.4959 7.65595 15.0383 10.593 15.0383Z" stroke="#4B4B4B" stroke-width="2" stroke-linecap="round" stroke-linejoin="round"/>
<path fill-rule="evenodd" clip-rule="evenodd" d="M10.593 12.5149C8.66606 12.5149 7.12231 10.9703 7.12231 9.04342C7.12231 7.1173 8.66606 5.57275 10.593 5.57275C12.5199 5.57275 14.0644 7.1173 14.0644 9.04342C14.0644 10.9703 12.5199 12.5149 10.593 12.5149Z" stroke="#4B4B4B" stroke-width="2" stroke-linecap="round" stroke-linejoin="round"/>
</svg>
