<svg width="24" height="24" viewBox="0 0 24 24" fill="none" xmlns="http://www.w3.org/2000/svg">
<circle cx="12" cy="12" r="12" fill="#DDDDDD"/>
<path fill-rule="evenodd" clip-rule="evenodd" d="M17.1373 9.44709L16.7742 8.81703C16.4671 8.28391 15.7863 8.1 15.2525 8.4059V8.4059C14.9984 8.5556 14.6951 8.59807 14.4097 8.52395C14.1242 8.44983 13.8799 8.2652 13.7308 8.01078C13.6348 7.84907 13.5832 7.66488 13.5813 7.47684V7.47684C13.5899 7.17536 13.4762 6.88321 13.2659 6.66695C13.0557 6.45069 12.7669 6.32873 12.4653 6.32886H11.7338C11.4383 6.32885 11.155 6.4466 10.9466 6.65603C10.7382 6.86547 10.6218 7.14933 10.6232 7.4448V7.4448C10.6144 8.05485 10.1174 8.54479 9.50727 8.54472C9.31923 8.54277 9.13503 8.4912 8.97332 8.39522V8.39522C8.43947 8.08932 7.75875 8.27324 7.45158 8.80636L7.0618 9.44709C6.75501 9.97954 6.93642 10.6598 7.4676 10.9688V10.9688C7.81288 11.1682 8.02558 11.5366 8.02558 11.9353C8.02558 12.334 7.81288 12.7024 7.4676 12.9017V12.9017C6.93709 13.2086 6.75548 13.8873 7.0618 14.4181V14.4181L7.43022 15.0535C7.57415 15.3132 7.81562 15.5048 8.10121 15.586C8.38681 15.6672 8.69297 15.6312 8.95196 15.486V15.486C9.20657 15.3374 9.50996 15.2967 9.79472 15.3729C10.0795 15.4491 10.322 15.6359 10.4684 15.8918C10.5643 16.0535 10.6159 16.2377 10.6179 16.4257V16.4257C10.6179 17.042 11.1175 17.5417 11.7338 17.5417H12.4653C13.0796 17.5417 13.5783 17.0453 13.5813 16.4311V16.4311C13.5798 16.1347 13.6969 15.85 13.9065 15.6404C14.1161 15.4308 14.4008 15.3137 14.6972 15.3151C14.8848 15.3201 15.0682 15.3715 15.2311 15.4646V15.4646C15.7636 15.7714 16.4439 15.59 16.7529 15.0588V15.0588L17.1373 14.4181C17.2861 14.1627 17.327 13.8585 17.2508 13.5729C17.1746 13.2872 16.9877 13.0438 16.7315 12.8964V12.8964C16.4753 12.749 16.2884 12.5055 16.2122 12.2199C16.1361 11.9342 16.1769 11.63 16.3257 11.3746C16.4225 11.2057 16.5626 11.0656 16.7315 10.9688V10.9688C17.2595 10.66 17.4405 9.98368 17.1373 9.45243V9.45243V9.44709Z" stroke="#4B4B4B" stroke-width="1.5" stroke-linecap="round" stroke-linejoin="round"/>
<circle cx="12.1022" cy="11.9352" r="1.53776" stroke="#4B4B4B" stroke-width="1.5" stroke-linecap="round" stroke-linejoin="round"/>
</svg>
