<svg width="15" height="15" viewBox="0 0 15 15" fill="none" xmlns="http://www.w3.org/2000/svg">
<path d="M11.9115 6.30839V6.31009V6.36321C11.8785 8.02118 10.9465 9.60344 9.73112 10.8865C9.03878 11.6052 8.2657 12.2415 7.42728 12.7828C7.40769 12.7954 7.389 12.8094 7.37136 12.8247C7.32618 12.8638 7.25916 12.8638 7.21397 12.8247C7.19681 12.8098 7.17865 12.7962 7.15963 12.7838C5.90979 11.9703 4.81285 10.9432 3.91898 9.74952L3.919 9.7495L3.91581 9.74533C3.15268 8.74827 2.71868 7.53858 2.67383 6.28394V6.27618C2.68294 3.72564 4.75772 1.66519 7.30836 1.67386C9.85928 1.68252 11.9202 3.75747 11.9115 6.30839Z" stroke="black" stroke-linecap="round" stroke-linejoin="round"/>
<ellipse cx="7.29268" cy="6.37398" rx="1.64058" ry="1.64058" stroke="black" stroke-linecap="round" stroke-linejoin="round"/>
</svg>
